solid OpenSCAD_Model
  facet normal -1 0 0
    outer loop
      vertex 1 2 9
      vertex 1 7 9
      vertex 1 2 3
    endloop
  endfacet
  facet normal -1 0 0
    outer loop
      vertex 1 2 3
      vertex 1 7 9
      vertex 1 7 3
    endloop
  endfacet
  facet normal 0 0 1
    outer loop
      vertex 1 2 9
      vertex 5 2 9
      vertex 5 7 9
    endloop
  endfacet
  facet normal 0 0 1
    outer loop
      vertex 1 7 9
      vertex 1 2 9
      vertex 5 7 9
    endloop
  endfacet
  facet normal 0 -1 0
    outer loop
      vertex 1 2 3
      vertex 5 2 3
      vertex 5 2 9
    endloop
  endfacet
  facet normal 0 -1 0
    outer loop
      vertex 1 2 9
      vertex 1 2 3
      vertex 5 2 9
    endloop
  endfacet
  facet normal 0 0 -1
    outer loop
      vertex 1 7 3
      vertex 5 7 3
      vertex 1 2 3
    endloop
  endfacet
  facet normal 0 0 -1
    outer loop
      vertex 1 2 3
      vertex 5 7 3
      vertex 5 2 3
    endloop
  endfacet
  facet normal 0 1 0
    outer loop
      vertex 1 7 9
      vertex 5 7 9
      vertex 1 7 3
    endloop
  endfacet
  facet normal 0 1 0
    outer loop
      vertex 1 7 3
      vertex 5 7 9
      vertex 5 7 3
    endloop
  endfacet
  facet normal 1 0 0
    outer loop
      vertex 5 2 3
      vertex 5 7 3
      vertex 5 7 9
    endloop
  endfacet
  facet normal 1 0 0
    outer loop
      vertex 5 2 9
      vertex 5 2 3
      vertex 5 7 9
    endloop
  endfacet
endsolid OpenSCAD_Model
